<svg width="13" height="13" viewBox="0 0 13 13" fill="none" xmlns="http://www.w3.org/2000/svg">
<path d="M5.18056 0.652973C5.50271 -0.217645 6.7341 -0.217643 7.05626 0.652975L8.11956 3.5265C8.22085 3.80022 8.43666 4.01603 8.71038 4.11732L11.5839 5.18062C12.4545 5.50278 12.4545 6.73416 11.5839 7.05632L8.71038 8.11962C8.43666 8.22091 8.22085 8.43672 8.11956 8.71044L7.05626 11.584C6.7341 12.4546 5.50271 12.4546 5.18056 11.584L4.11726 8.71044C4.01597 8.43672 3.80016 8.22091 3.52644 8.11962L0.652912 7.05632C-0.217706 6.73416 -0.217705 5.50278 0.652914 5.18062L3.52644 4.11732C3.80016 4.01603 4.01597 3.80022 4.11726 3.5265L5.18056 0.652973Z" fill="black"/>
</svg>
